<svg data-v-423bf9ae="" xmlns="http://www.w3.org/2000/svg" viewBox="0 0 736.8076709204242 163" class="iconAbove"><!----><!----><!----><g data-v-423bf9ae="" id="a66fa25a-cce2-473d-bf7d-63691917ac1a" fill="white" transform="matrix(4.7885073193928935,0,0,4.7885073193928935,-2.8252045022769607,85.90503038152761)"><path d="M5.77 10.75L5.77 10.75L4.42 10.74L4.42 10.74Q3.81 10.74 3.49 10.75L3.49 10.75L3.49 10.75Q3.28 12.61 3.26 13.94L3.26 13.94L3.26 13.94Q6.55 13.94 8.15 13.41L8.15 13.41L8.15 13.41Q8.02 14.45 7.52 15.02L7.52 15.02L7.52 15.02Q7.01 15.60 6.26 15.60L6.26 15.60L6.26 15.60Q6.03 15.60 5.00 15.48L5.00 15.48L5.00 15.48Q3.98 15.36 2.83 15.36L2.83 15.36L2.83 15.36Q1.68 15.36 0.59 15.60L0.59 15.60L0.59 15.60Q0.74 14.94 1.26 14.52L1.26 14.52L1.26 14.46L1.26 14.46Q1.26 13.71 1.65 11.02L1.65 11.02L1.65 11.02Q1.30 11.14 1.05 11.24L1.05 11.24L1.05 11.24Q1.02 10.93 1.02 10.78L1.02 10.78L1.02 10.78Q1.02 9.84 1.85 9.59L1.85 9.59L1.85 9.59Q2.10 7.74 2.18 6.26L2.18 6.26L2.18 6.26Q1.67 6.23 1.53 6.02L1.53 6.02L1.53 6.02Q1.39 5.81 1.39 5.19L1.39 5.19L1.39 5.19Q1.43 4.56 1.50 4.37L1.50 4.37L1.50 4.37Q3.07 4.58 4.96 4.58L4.96 4.58L4.96 4.58Q6.86 4.58 8.62 4.24L8.62 4.24L8.62 4.24Q8.43 5.71 6.83 6.01L6.83 6.01L6.83 6.01Q5.89 6.19 4.05 6.24L4.05 6.24L4.05 6.24Q4.03 6.40 3.64 9.49L3.64 9.49L3.64 9.49Q4.48 9.52 4.80 9.52L4.80 9.52L4.80 9.52Q6.13 9.52 6.69 9.06L6.69 9.06L6.69 9.06Q6.72 9.34 6.72 9.48L6.72 9.48L6.72 9.48Q6.72 10.75 5.77 10.75ZM16.83 15.89L16.83 15.89L16.83 15.89Q15.68 15.89 14.77 14.69L14.77 14.69L14.77 14.69Q13.86 13.48 12.94 11.28L12.94 11.28L12.94 11.28Q11.02 13.51 10.22 15.86L10.22 15.86L10.22 15.86Q9.07 15.12 9.06 14.31L9.06 14.31L9.06 14.31Q9.04 13.50 9.88 12.46L9.88 12.46L9.88 12.46Q10.72 11.42 12.36 9.86L12.36 9.86L12.36 9.86Q12.28 9.63 12.05 9.07L12.05 9.07L12.05 9.07Q11.83 8.51 11.66 8.09L11.66 8.09L11.66 8.09Q11.49 7.66 11.42 7.49L11.42 7.49L11.42 7.49Q11.34 7.32 11.19 6.96L11.19 6.96L11.19 6.96Q11.03 6.59 10.93 6.41L10.93 6.41L10.93 6.41Q10.84 6.22 10.69 5.91L10.69 5.91L10.69 5.91Q10.54 5.60 10.43 5.40L10.43 5.40L10.43 5.40Q10.08 4.83 9.88 4.56L9.88 4.56L9.88 4.56Q10.68 4.19 11.19 4.19L11.19 4.19L11.19 4.19Q11.69 4.19 11.99 4.45L11.99 4.45L11.99 4.45Q12.29 4.70 12.65 5.47L12.65 5.47L12.65 5.47Q13.01 6.23 13.16 6.62L13.16 6.62L13.16 6.62Q13.31 7.01 13.56 7.71L13.56 7.71L13.56 7.71Q13.80 8.40 13.83 8.47L13.83 8.47L13.83 8.47Q15.25 7.08 16.04 6.03L16.04 6.03L16.04 6.03Q16.84 4.98 16.88 4.10L16.88 4.10L16.88 4.10Q17.44 4.34 17.72 4.72L17.72 4.72L17.72 4.72Q18.00 5.10 18.00 5.44L18.00 5.44L18.00 5.44Q18.00 5.78 17.83 6.17L17.83 6.17L17.83 6.17Q17.65 6.55 17.24 7.01L17.24 7.01L17.24 7.01Q16.83 7.48 16.47 7.83L16.47 7.83L16.47 7.83Q16.11 8.18 15.43 8.81L15.43 8.81L15.43 8.81Q14.74 9.44 14.34 9.83L14.34 9.83L14.34 9.83Q15.90 13.89 17.72 15.82L17.72 15.82L17.72 15.82Q17.36 15.89 16.83 15.89ZM20.85 15.67L20.85 15.67Q20.05 15.67 19.70 15.39L19.70 15.39L19.70 15.39Q19.35 15.11 19.35 14.45L19.35 14.45L19.35 14.45Q19.35 13.79 19.82 10.46L19.82 10.46L19.82 10.46Q20.29 7.14 20.29 5.72L20.29 5.72L20.29 5.72Q20.29 4.30 20.09 3.86L20.09 3.86L20.09 3.86Q21.52 3.98 21.97 4.98L21.97 4.98L21.97 4.98Q23.04 4.40 24.34 4.40L24.34 4.40L24.34 4.40Q25.63 4.40 26.38 5.20L26.38 5.20L26.38 5.20Q27.13 6.01 27.13 7.18L27.13 7.18L27.13 7.18Q27.13 8.64 26.07 9.81L26.07 9.81L26.07 9.81Q25.55 10.37 24.73 10.72L24.73 10.72L24.73 10.72Q23.91 11.07 22.92 11.07L22.92 11.07L22.92 11.07Q22.50 11.07 22.12 11.02L22.12 11.02L22.08 10.43L22.08 10.43Q22.13 10.43 22.19 10.43L22.19 10.43L22.19 10.43Q23.77 10.43 24.71 9.25L24.71 9.25L24.71 9.25Q25.35 8.41 25.35 7.49L25.35 7.49L25.35 7.49Q25.35 6.13 24.25 5.70L24.25 5.70L24.25 5.70Q23.31 5.35 22.15 5.84L22.15 5.84L22.15 5.87L22.15 5.87Q22.15 6.40 21.75 9.35L21.75 9.35L21.75 9.35Q21.35 12.29 21.35 14.27L21.35 14.27L21.35 14.27Q21.35 15.15 21.43 15.64L21.43 15.64L21.43 15.64Q20.99 15.67 20.85 15.67L20.85 15.67ZM32.69 10.75L32.69 10.75L31.35 10.74L31.35 10.74Q30.73 10.74 30.41 10.75L30.41 10.75L30.41 10.75Q30.20 12.61 30.18 13.94L30.18 13.94L30.18 13.94Q33.47 13.94 35.07 13.41L35.07 13.41L35.07 13.41Q34.94 14.45 34.44 15.02L34.44 15.02L34.44 15.02Q33.94 15.60 33.18 15.60L33.18 15.60L33.18 15.60Q32.96 15.60 31.93 15.48L31.93 15.48L31.93 15.48Q30.90 15.36 29.75 15.36L29.75 15.36L29.75 15.36Q28.60 15.36 27.51 15.60L27.51 15.60L27.51 15.60Q27.66 14.94 28.18 14.52L28.18 14.52L28.18 14.46L28.18 14.46Q28.18 13.71 28.57 11.02L28.57 11.02L28.57 11.02Q28.22 11.14 27.97 11.24L27.97 11.24L27.97 11.24Q27.94 10.93 27.94 10.78L27.94 10.78L27.94 10.78Q27.94 9.84 28.77 9.59L28.77 9.59L28.77 9.59Q29.02 7.74 29.11 6.26L29.11 6.26L29.11 6.26Q28.59 6.23 28.45 6.02L28.45 6.02L28.45 6.02Q28.31 5.81 28.31 5.19L28.31 5.19L28.31 5.19Q28.35 4.56 28.42 4.37L28.42 4.37L28.42 4.37Q29.99 4.58 31.89 4.58L31.89 4.58L31.89 4.58Q33.78 4.58 35.55 4.24L35.55 4.24L35.55 4.24Q35.35 5.71 33.75 6.01L33.75 6.01L33.75 6.01Q32.82 6.19 30.97 6.24L30.97 6.24L30.97 6.24Q30.95 6.40 30.56 9.49L30.56 9.49L30.56 9.49Q31.40 9.52 31.72 9.52L31.72 9.52L31.72 9.52Q33.05 9.52 33.61 9.06L33.61 9.06L33.61 9.06Q33.64 9.34 33.64 9.48L33.64 9.48L33.64 9.48Q33.64 10.75 32.69 10.75ZM38.30 15.67L38.30 15.67Q37.51 15.67 37.16 15.39L37.16 15.39L37.16 15.39Q36.81 15.11 36.81 14.45L36.81 14.45L36.81 14.45Q36.81 13.79 37.27 10.46L37.27 10.46L37.27 10.46Q37.74 7.14 37.74 5.72L37.74 5.72L37.74 5.72Q37.74 4.30 37.55 3.86L37.55 3.86L37.55 3.86Q38.96 3.98 39.42 4.97L39.42 4.97L39.42 4.97Q40.43 4.41 41.71 4.41L41.71 4.41L41.71 4.41Q42.99 4.41 43.81 5.15L43.81 5.15L43.81 5.15Q44.63 5.88 44.63 6.85L44.63 6.85L44.63 6.85Q44.63 7.81 43.97 8.77L43.97 8.77L43.97 8.77Q43.32 9.73 42.01 10.22L42.01 10.22L42.20 10.77L42.20 10.77Q42.70 12.33 43.65 13.87L43.65 13.87L43.65 13.87Q44.60 15.40 45.21 15.96L45.21 15.96L45.21 15.96Q44.69 16.10 44.18 16.10L44.18 16.10L44.18 16.10Q43.67 16.10 43.15 15.77L43.15 15.77L43.15 15.77Q42.63 15.44 42.29 15.05L42.29 15.05L42.29 15.05Q41.94 14.66 41.52 13.80L41.52 13.80L41.52 13.80Q41.10 12.95 40.92 12.47L40.92 12.47L40.92 12.47Q40.74 12.00 40.52 11.42L40.52 11.42L40.52 11.42Q40.31 10.85 40.29 10.81L40.29 10.81L40.29 10.81Q40.28 10.77 40.25 10.70L40.25 10.70L40.25 10.70Q40.22 10.64 40.21 10.58L40.21 10.58L40.21 10.58Q39.90 10.58 39.61 10.58L39.61 10.58L39.56 9.94L39.56 9.94Q41.34 9.87 42.21 8.67L42.21 8.67L42.21 8.67Q42.69 7.99 42.69 7.29L42.69 7.29L42.69 7.29Q42.69 7.03 42.63 6.78L42.63 6.78L42.63 6.78Q42.39 5.87 41.50 5.64L41.50 5.64L41.50 5.64Q41.24 5.57 40.80 5.57L40.80 5.57L40.80 5.57Q40.35 5.57 39.61 5.87L39.61 5.87L39.61 5.87Q39.61 6.40 39.21 9.35L39.21 9.35L39.21 9.35Q38.81 12.29 38.81 14.27L38.81 14.27L38.81 14.27Q38.81 15.15 38.89 15.64L38.89 15.64L38.89 15.64Q38.44 15.67 38.30 15.67L38.30 15.67ZM48.89 4.88L48.89 4.88L48.89 4.88Q49 5.11 49.02 5.31L49.02 5.31L49.02 5.31Q49.04 5.50 49.04 6.02L49.04 6.02L49.04 6.02Q49.04 6.54 48.58 9.70L48.58 9.70L48.58 9.70Q48.12 12.87 48.12 14.13L48.12 14.13L48.12 14.13Q48.12 15.40 48.31 15.86L48.31 15.86L48.31 15.86Q47.12 15.55 46.69 15.04L46.69 15.04L46.69 15.04Q46.26 14.53 46.26 13.62L46.26 13.62L46.26 13.62Q46.26 13.09 46.55 10.92L46.55 10.92L46.55 10.92Q47.07 7.32 47.07 5.35L47.07 5.35L47.07 5.35Q47.07 4.93 47.01 4.20L47.01 4.20L47.01 4.20Q48.08 4.26 48.57 4.54L48.57 4.54L48.57 4.54Q48.78 4.65 48.89 4.88ZM55.79 10.75L55.79 10.75L54.45 10.74L54.45 10.74Q53.83 10.74 53.51 10.75L53.51 10.75L53.51 10.75Q53.30 12.61 53.28 13.94L53.28 13.94L53.28 13.94Q56.57 13.94 58.17 13.41L58.17 13.41L58.17 13.41Q58.04 14.45 57.54 15.02L57.54 15.02L57.54 15.02Q57.04 15.60 56.28 15.60L56.28 15.60L56.28 15.60Q56.06 15.60 55.03 15.48L55.03 15.48L55.03 15.48Q54.00 15.36 52.85 15.36L52.85 15.36L52.85 15.36Q51.70 15.36 50.61 15.60L50.61 15.60L50.61 15.60Q50.76 14.94 51.28 14.52L51.28 14.52L51.28 14.46L51.28 14.46Q51.28 13.71 51.67 11.02L51.67 11.02L51.67 11.02Q51.32 11.14 51.07 11.24L51.07 11.24L51.07 11.24Q51.04 10.93 51.04 10.78L51.04 10.78L51.04 10.78Q51.04 9.84 51.87 9.59L51.87 9.59L51.87 9.59Q52.12 7.74 52.21 6.26L52.21 6.26L52.21 6.26Q51.69 6.23 51.55 6.02L51.55 6.02L51.55 6.02Q51.41 5.81 51.41 5.19L51.41 5.19L51.41 5.19Q51.45 4.56 51.52 4.37L51.52 4.37L51.52 4.37Q53.09 4.58 54.99 4.58L54.99 4.58L54.99 4.58Q56.88 4.58 58.65 4.24L58.65 4.24L58.65 4.24Q58.45 5.71 56.85 6.01L56.85 6.01L56.85 6.01Q55.92 6.19 54.07 6.24L54.07 6.24L54.07 6.24Q54.05 6.40 53.66 9.49L53.66 9.49L53.66 9.49Q54.50 9.52 54.82 9.52L54.82 9.52L54.82 9.52Q56.15 9.52 56.71 9.06L56.71 9.06L56.71 9.06Q56.74 9.34 56.74 9.48L56.74 9.48L56.74 9.48Q56.74 10.75 55.79 10.75ZM61.97 9.77L61.97 9.77L61.97 9.77Q61.78 11.10 61.68 12.18L61.68 12.18L61.68 12.18Q61.59 13.26 61.59 14.01L61.59 14.01L61.59 14.01Q61.59 14.77 61.64 15.50L61.64 15.50L61.64 15.50Q60.66 15.50 60.32 15.27L60.32 15.27L60.32 15.27Q59.98 15.04 59.98 14.62L59.98 14.62L59.98 14.62Q59.98 14.49 60.44 10.86L60.44 10.86L60.44 10.86Q60.90 7.22 60.91 5.77L60.91 5.77L60.79 5.59L60.79 5.59Q60.44 5.07 59.86 4.72L59.86 4.72L59.86 4.72Q59.72 4.63 59.70 4.61L59.70 4.61L59.70 4.61Q60.37 4.20 60.98 4.20L60.98 4.20L60.98 4.20Q62.22 4.20 62.79 5.01L62.79 5.01L62.79 5.01Q63.36 5.81 64.93 8.97L64.93 8.97L64.93 8.97Q65.10 9.32 65.44 10.03L65.44 10.03L65.44 10.03Q65.79 10.74 66.00 11.17L66.00 11.17L66.00 11.17Q66.49 12.22 67.05 13.15L67.05 13.15L67.05 13.15Q67.09 12.60 67.43 9.79L67.43 9.79L67.43 9.79Q67.77 6.99 67.77 5.35L67.77 5.35L67.77 5.35Q67.77 4.91 67.72 4.21L67.72 4.21L67.72 4.21Q68.70 4.21 69.03 4.44L69.03 4.44L69.03 4.44Q69.37 4.66 69.37 5.07L69.37 5.07L69.37 5.07Q69.37 5.22 68.91 8.97L68.91 8.97L68.91 8.97Q68.45 12.73 68.45 14.17L68.45 14.17L68.45 14.17Q68.45 14.69 68.47 14.92L68.47 14.92L68.47 14.92Q68.59 15.02 68.84 15.16L68.84 15.16L68.84 15.16Q67.97 15.72 67.23 15.72L67.23 15.72L67.23 15.72Q66.49 15.72 65.94 14.90L65.94 14.90L65.94 14.90Q65.69 14.53 64.25 11.78L64.25 11.78L64.25 11.78Q62.82 9.03 62.22 7.95L62.22 7.95L62.22 7.95Q62.16 8.43 61.97 9.77ZM74.87 15.64L74.87 15.64L74.87 15.64Q73.22 15.64 72.10 14.38L72.10 14.38L72.10 14.38Q70.98 13.12 70.98 10.71L70.98 10.71L70.98 10.71Q70.98 8.02 72.37 6.13L72.37 6.13L72.37 6.13Q73.05 5.22 74.12 4.68L74.12 4.68L74.12 4.68Q75.19 4.14 76.60 4.14L76.60 4.14L76.60 4.14Q78.01 4.14 78.74 4.89L78.74 4.89L78.74 4.89Q79.48 5.64 79.48 6.66L79.48 6.66L79.48 6.66Q79.48 7.67 78.92 8.31L78.92 8.31L78.92 8.31Q78.36 8.95 77.46 8.95L77.46 8.95L77.46 8.95Q77.15 8.95 76.75 8.83L76.75 8.83L76.75 8.83Q77.04 8.47 77.27 7.80L77.27 7.80L77.27 7.80Q77.49 7.13 77.49 6.52L77.49 6.52L77.49 6.52Q77.49 5.92 77.21 5.54L77.21 5.54L77.21 5.54Q76.93 5.17 76.33 5.17L76.33 5.17L76.33 5.17Q75.40 5.17 74.66 6.02L74.66 6.02L74.66 6.02Q73.92 6.87 73.56 8.12L73.56 8.12L73.56 8.12Q73.19 9.37 73.19 10.70L73.19 10.70L73.19 10.70Q73.19 12.49 73.89 13.41L73.89 13.41L73.89 13.41Q74.59 14.34 75.68 14.34L75.68 14.34L75.68 14.34Q76.37 14.34 77.11 13.87L77.11 13.87L77.11 13.87Q77.85 13.41 78.53 12.56L78.53 12.56L78.53 12.56Q79.04 12.67 79.04 13.08L79.04 13.08L79.04 13.08Q78.51 14.04 77.74 14.64L77.74 14.64L77.74 14.64Q76.97 15.25 76.29 15.44L76.29 15.44L76.29 15.44Q75.60 15.64 74.87 15.64ZM83.65 4.88L83.65 4.88L83.65 4.88Q83.76 5.11 83.78 5.31L83.78 5.31L83.78 5.31Q83.80 5.50 83.80 6.02L83.80 6.02L83.80 6.02Q83.80 6.54 83.34 9.70L83.34 9.70L83.34 9.70Q82.88 12.87 82.88 14.13L82.88 14.13L82.88 14.13Q82.88 15.40 83.08 15.86L83.08 15.86L83.08 15.86Q81.89 15.55 81.45 15.04L81.45 15.04L81.45 15.04Q81.02 14.53 81.02 13.62L81.02 13.62L81.02 13.62Q81.02 13.09 81.31 10.92L81.31 10.92L81.31 10.92Q81.83 7.32 81.83 5.35L81.83 5.35L81.83 5.35Q81.83 4.93 81.77 4.20L81.77 4.20L81.77 4.20Q82.84 4.26 83.33 4.54L83.33 4.54L83.33 4.54Q83.54 4.65 83.65 4.88ZM84.50 14.81L84.50 14.81L84.50 14.81Q84.50 14.55 85.32 12.82L85.32 12.82L85.32 12.82Q86.13 11.10 87.16 8.91L87.16 8.91L87.16 8.91Q88.19 6.72 88.55 5.73L88.55 5.73L88.80 5.04L88.80 5.04Q88.69 4.84 88.26 4.33L88.26 4.33L88.26 4.33Q88.76 4.16 89.13 4.16L89.13 4.16L89.13 4.16Q89.50 4.16 89.75 4.21L89.75 4.21L89.75 4.21Q89.99 4.27 90.18 4.40L90.18 4.40L90.18 4.40Q90.37 4.54 90.52 4.68L90.52 4.68L90.52 4.68Q90.66 4.82 90.79 5.09L90.79 5.09L90.79 5.09Q90.92 5.36 91 5.58L91 5.58L91 5.58Q91.08 5.80 91.19 6.19L91.19 6.19L91.19 6.19Q91.29 6.58 91.36 6.87L91.36 6.87L91.36 6.87Q91.42 7.15 91.53 7.67L91.53 7.67L91.53 7.67Q91.63 8.18 91.74 8.65L91.74 8.65L91.74 8.65Q91.85 9.13 92.13 10.46L92.13 10.46L92.13 10.46Q92.41 11.80 92.58 12.47L92.58 12.47L92.58 12.47Q92.74 13.13 93.04 13.96L93.04 13.96L93.04 13.96Q93.34 14.78 93.67 15.26L93.67 15.26L93.67 15.26Q92.86 15.65 92.36 15.65L92.36 15.65L92.36 15.65Q91.85 15.65 91.62 15.39L91.62 15.39L91.62 15.39Q91.38 15.13 91.21 14.61L91.21 14.61L91.21 14.61Q91.04 14.08 90.55 11.79L90.55 11.79L90.55 11.79Q90.23 12.07 89.50 12.10L89.50 12.10L87.11 12.18L87.11 12.18Q86.25 14.27 85.85 15.89L85.85 15.89L85.85 15.89Q84.50 15.41 84.50 14.81ZM89.45 6.90L89.45 6.90L89.45 6.90Q89.25 7.35 88.59 8.81L88.59 8.81L88.59 8.81Q87.92 10.28 87.56 11.14L87.56 11.14L90.43 11.14L90.43 11.14Q89.77 8.12 89.45 6.90ZM98.51 5.10L98.51 5.10L98.51 5.10Q97.87 5.10 97.45 5.48L97.45 5.48L97.45 5.48Q97.03 5.87 97.03 6.57L97.03 6.57L97.03 6.57Q97.03 7.27 97.39 7.82L97.39 7.82L97.39 7.82Q97.75 8.37 98.27 8.76L98.27 8.76L98.27 8.76Q98.80 9.14 99.42 9.59L99.42 9.59L99.42 9.59Q100.04 10.04 100.57 10.44L100.57 10.44L100.57 10.44Q101.09 10.84 101.45 11.42L101.45 11.42L101.45 11.42Q101.81 12.01 101.81 12.67L101.81 12.67L101.81 12.67Q101.81 13.97 100.74 14.88L100.74 14.88L100.74 14.88Q99.68 15.78 97.95 15.78L97.95 15.78L97.95 15.78Q96.22 15.78 95.21 15.04L95.21 15.04L95.21 15.04Q94.21 14.29 94.21 13.36L94.21 13.36L94.21 13.36Q94.21 12.42 94.77 11.89L94.77 11.89L94.77 11.89Q95.33 11.37 96.21 11.37L96.21 11.37L96.21 11.37Q96.46 11.37 96.68 11.42L96.68 11.42L96.68 11.42Q96.25 12.07 96.25 12.82L96.25 12.82L96.25 12.82Q96.25 13.57 96.71 14.11L96.71 14.11L96.71 14.11Q97.17 14.64 97.94 14.64L97.94 14.64L97.94 14.64Q98.70 14.64 99.22 14.25L99.22 14.25L99.22 14.25Q99.74 13.85 99.74 13.22L99.74 13.22L99.74 13.22Q99.74 12.60 99.39 12.12L99.39 12.12L99.39 12.12Q99.04 11.65 98.52 11.30L98.52 11.30L98.52 11.30Q98 10.96 97.38 10.52L97.38 10.52L97.38 10.52Q96.77 10.08 96.25 9.63L96.25 9.63L96.25 9.63Q95.73 9.18 95.38 8.49L95.38 8.49L95.38 8.49Q95.03 7.80 95.03 6.97L95.03 6.97L95.03 6.97Q95.03 5.64 96.00 4.85L96.00 4.85L96.00 4.85Q96.96 4.06 98.60 4.06L98.60 4.06L98.60 4.06Q100.24 4.06 101.09 4.79L101.09 4.79L101.09 4.79Q101.93 5.53 101.93 6.36L101.93 6.36L101.93 6.36Q101.93 7.20 101.40 7.76L101.40 7.76L101.40 7.76Q100.87 8.33 99.96 8.33L99.96 8.33L99.96 8.33Q99.65 8.33 99.36 8.27L99.36 8.27L99.36 8.27Q100.04 7.55 100.04 6.74L100.04 6.74L100.04 6.74Q100.04 5.94 99.60 5.52L99.60 5.52L99.60 5.52Q99.15 5.10 98.51 5.10ZM108.60 12.61L108.60 12.61L108.60 12.61Q108.89 10.64 109.05 8.82L109.05 8.82L109.05 8.82Q109.21 7 109.21 5.52L109.21 5.52L109.21 5.52Q109.21 4.03 109.02 3.57L109.02 3.57L109.02 3.57Q110.52 3.96 110.89 4.80L110.89 4.80L110.89 4.80Q111.97 4.20 113.18 4.20L113.18 4.20L113.18 4.20Q114.38 4.20 115.14 4.88L115.14 4.88L115.14 4.88Q115.91 5.56 115.91 6.53L115.91 6.53L115.91 6.53Q115.91 7.50 115.21 8.34L115.21 8.34L115.21 8.34Q114.51 9.17 113.29 9.58L113.29 9.58L113.29 9.58Q114.27 9.79 115.09 10.52L115.09 10.52L115.09 10.52Q115.91 11.26 115.91 12.33L115.91 12.33L115.91 12.33Q115.91 13.99 114.68 14.88L114.68 14.88L114.68 14.88Q113.46 15.76 111.59 15.76L111.59 15.76L111.59 15.76Q109.72 15.76 108.29 14.69L108.29 14.69L108.29 14.69Q108.30 14.57 108.60 12.61ZM113.93 6.86L113.93 6.86Q113.93 6.23 113.54 5.80L113.54 5.80L113.54 5.80Q113.15 5.38 112.43 5.38L112.43 5.38L112.43 5.38Q111.72 5.38 111.06 5.67L111.06 5.67L111.06 5.67Q111.06 6.52 110.69 9.97L110.69 9.97L110.69 9.97Q110.32 13.41 110.32 14.38L110.32 14.38L110.32 14.38Q110.94 14.63 111.51 14.63L111.51 14.63L111.51 14.63Q112.50 14.63 113.15 13.97L113.15 13.97L113.15 13.97Q113.79 13.31 113.79 12.32L113.79 12.32L113.79 12.32Q113.79 11.33 113.12 10.66L113.12 10.66L113.12 10.66Q112.45 10.00 111.24 9.94L111.24 9.94L111.20 9.44L111.20 9.44Q112.49 9.25 113.21 8.49L113.21 8.49L113.21 8.49Q113.93 7.73 113.93 6.86L113.93 6.86ZM116.47 14.81L116.47 14.81L116.47 14.81Q116.47 14.55 117.28 12.82L117.28 12.82L117.28 12.82Q118.09 11.10 119.12 8.91L119.12 8.91L119.12 8.91Q120.15 6.72 120.51 5.73L120.51 5.73L120.76 5.04L120.76 5.04Q120.65 4.84 120.22 4.33L120.22 4.33L120.22 4.33Q120.72 4.16 121.09 4.16L121.09 4.16L121.09 4.16Q121.46 4.16 121.71 4.21L121.71 4.21L121.71 4.21Q121.95 4.27 122.14 4.40L122.14 4.40L122.14 4.40Q122.33 4.54 122.48 4.68L122.48 4.68L122.48 4.68Q122.63 4.82 122.75 5.09L122.75 5.09L122.75 5.09Q122.88 5.36 122.96 5.58L122.96 5.58L122.96 5.58Q123.05 5.80 123.15 6.19L123.15 6.19L123.15 6.19Q123.26 6.58 123.32 6.87L123.32 6.87L123.32 6.87Q123.38 7.15 123.49 7.67L123.49 7.67L123.49 7.67Q123.59 8.18 123.70 8.65L123.70 8.65L123.70 8.65Q123.82 9.13 124.10 10.46L124.10 10.46L124.10 10.46Q124.38 11.80 124.54 12.47L124.54 12.47L124.54 12.47Q124.70 13.13 125.00 13.96L125.00 13.96L125.00 13.96Q125.30 14.78 125.64 15.26L125.64 15.26L125.64 15.26Q124.82 15.65 124.32 15.65L124.32 15.65L124.32 15.65Q123.82 15.65 123.58 15.39L123.58 15.39L123.58 15.39Q123.34 15.13 123.17 14.61L123.17 14.61L123.17 14.61Q123.00 14.08 122.51 11.79L122.51 11.79L122.51 11.79Q122.19 12.07 121.46 12.10L121.46 12.10L119.07 12.18L119.07 12.18Q118.22 14.27 117.81 15.89L117.81 15.89L117.81 15.89Q116.47 15.41 116.47 14.81ZM121.41 6.90L121.41 6.90L121.41 6.90Q121.21 7.35 120.55 8.81L120.55 8.81L120.55 8.81Q119.88 10.28 119.52 11.14L119.52 11.14L122.39 11.14L122.39 11.14Q121.73 8.12 121.41 6.90ZM127.02 14.36L127.02 14.36L127.02 14.36Q126.95 14.08 126.95 13.59L126.95 13.59L126.95 13.59Q126.95 13.09 127.25 10.92L127.25 10.92L127.25 10.92Q127.76 7.32 127.76 5.35L127.76 5.35L127.76 5.35Q127.76 4.93 127.71 4.20L127.71 4.20L127.71 4.20Q128.77 4.26 129.26 4.54L129.26 4.54L129.26 4.54Q129.47 4.65 129.58 4.88L129.58 4.88L129.58 4.88Q129.70 5.11 129.72 5.31L129.72 5.31L129.72 5.31Q129.74 5.50 129.74 6.02L129.74 6.02L129.74 6.02Q129.74 6.54 129.31 9.42L129.31 9.42L129.31 9.42Q128.88 12.29 128.81 13.94L128.81 13.94L128.81 13.94Q132.13 13.94 133.73 13.41L133.73 13.41L133.73 13.41Q133.60 14.45 133.10 15.02L133.10 15.02L133.10 15.02Q132.59 15.60 131.84 15.60L131.84 15.60L131.84 15.60Q131.61 15.60 130.59 15.48L130.59 15.48L130.59 15.48Q129.56 15.36 128.41 15.36L128.41 15.36L128.41 15.36Q127.26 15.36 126.17 15.60L126.17 15.60L126.17 15.60Q126.38 14.78 127.02 14.36ZM133.15 14.81L133.15 14.81L133.15 14.81Q133.15 14.55 133.97 12.82L133.97 12.82L133.97 12.82Q134.78 11.10 135.81 8.91L135.81 8.91L135.81 8.91Q136.84 6.72 137.20 5.73L137.20 5.73L137.45 5.04L137.45 5.04Q137.34 4.84 136.91 4.33L136.91 4.33L136.91 4.33Q137.41 4.16 137.78 4.16L137.78 4.16L137.78 4.16Q138.15 4.16 138.40 4.21L138.40 4.21L138.40 4.21Q138.64 4.27 138.83 4.40L138.83 4.40L138.83 4.40Q139.02 4.54 139.17 4.68L139.17 4.68L139.17 4.68Q139.31 4.82 139.44 5.09L139.44 5.09L139.44 5.09Q139.57 5.36 139.65 5.58L139.65 5.58L139.65 5.58Q139.73 5.80 139.84 6.19L139.84 6.19L139.84 6.19Q139.94 6.58 140.01 6.87L140.01 6.87L140.01 6.87Q140.07 7.15 140.18 7.67L140.18 7.67L140.18 7.67Q140.28 8.18 140.39 8.65L140.39 8.65L140.39 8.65Q140.50 9.13 140.78 10.46L140.78 10.46L140.78 10.46Q141.06 11.80 141.22 12.47L141.22 12.47L141.22 12.47Q141.39 13.13 141.69 13.96L141.69 13.96L141.69 13.96Q141.99 14.78 142.32 15.26L142.32 15.26L142.32 15.26Q141.51 15.65 141.01 15.65L141.01 15.65L141.01 15.65Q140.50 15.65 140.27 15.39L140.27 15.39L140.27 15.39Q140.03 15.13 139.86 14.61L139.86 14.61L139.86 14.61Q139.69 14.08 139.20 11.79L139.20 11.79L139.20 11.79Q138.88 12.07 138.15 12.10L138.15 12.10L135.76 12.18L135.76 12.18Q134.90 14.27 134.50 15.89L134.50 15.89L134.50 15.89Q133.15 15.41 133.15 14.81ZM138.10 6.90L138.10 6.90L138.10 6.90Q137.90 7.35 137.23 8.81L137.23 8.81L137.23 8.81Q136.57 10.28 136.21 11.14L136.21 11.14L139.08 11.14L139.08 11.14Q138.42 8.12 138.10 6.90ZM149.23 12.80L149.23 12.80L149.23 12.80Q148.72 12.99 148.44 12.99L148.44 12.99L148.44 12.99Q147.60 12.99 147.50 12.75L147.50 12.75L147.50 12.75Q146.10 9.16 145.66 8.12L145.66 8.12L145.66 8.12Q145.61 8.50 145.43 9.87L145.43 9.87L145.43 9.87Q145.05 12.56 145.05 14.34L145.05 14.34L145.05 14.34Q145.05 14.77 145.11 15.50L145.11 15.50L145.11 15.50Q144.13 15.50 143.79 15.27L143.79 15.27L143.79 15.27Q143.44 15.04 143.44 14.62L143.44 14.62L143.44 14.62Q143.44 14.48 143.91 10.81L143.91 10.81L143.91 10.81Q144.38 7.14 144.38 5.70L144.38 5.70L144.38 5.63L144.38 5.63Q143.98 4.97 143.53 4.55L143.53 4.55L143.53 4.55Q144.05 4.19 144.77 4.19L144.77 4.19L144.77 4.19Q145.70 4.19 146.20 5.05L146.20 5.05L146.20 5.05Q146.71 5.91 148.18 9.77L148.18 9.77L148.82 11.42L148.82 11.42Q148.90 11.28 149.07 11.05L149.07 11.05L149.07 11.05Q152.49 5.99 152.59 4.19L152.59 4.19L152.59 4.19Q152.59 4.20 152.92 4.22L152.92 4.22L152.92 4.22Q153.26 4.24 153.64 4.36L153.64 4.36L153.64 4.36Q154.03 4.48 154.20 4.73L154.20 4.73L154.20 4.73Q154.38 4.97 154.42 5.20L154.42 5.20L154.42 5.20Q154.46 5.43 154.46 5.99L154.46 5.99L154.46 5.99Q154.46 6.54 154 9.70L154 9.70L154 9.70Q153.54 12.87 153.54 14.13L153.54 14.13L153.54 14.13Q153.54 15.40 153.73 15.86L153.73 15.86L153.73 15.86Q152.54 15.55 152.11 15.04L152.11 15.04L152.11 15.04Q151.68 14.53 151.68 13.62L151.68 13.62L151.68 13.62Q151.68 13.09 151.96 11.00L151.96 11.00L151.96 11.00Q152.25 8.92 152.36 7.67L152.36 7.67L152.36 7.67Q151.80 8.64 150.77 10.32L150.77 10.32L150.77 10.32Q149.74 12.00 149.53 12.31L149.53 12.31L149.53 12.31Q149.32 12.63 149.23 12.80Z"></path></g><!----><g data-v-423bf9ae="" id="464930b4-2b2c-4714-ae62-a2053d708871" transform="matrix(3.1025924503236535,0,0,3.1025924503236535,319.3585207948215,-8.290956827928717)" stroke="none" fill="white"><path d="M16 26.219l7.496-12.954H8.504zM7.496 19.046L0 32h14.992zM17.008 32H32l-7.496-12.954zM3.587 2.992L0 9.191h7.174zM8.275 9.191h7.174l-3.587-6.199zM20.138 2.992l-3.587 6.199h7.174zM24.826 9.191H32l-3.587-6.199z"></path></g><!----></svg>